<svg xmlns="http://www.w3.org/2000/svg" viewBox="0 5.5 68.66 69" role="img" aria-label="Vansales" style="color:#1765B3"><defs><style>.vsl{fill:currentColor;}</style></defs><g id="Layer_2" data-name="Layer 2"><g id="Layer_1-2" data-name="Layer 1"><path class="vsl" d="M18,24.26h-.7a.85.85,0,0,0,0,1.7H18a.85.85,0,0,0,0-1.7"></path><path class="vsl" d="M20.62,32.24h.69a.85.85,0,1,0,0-1.7h-.69a.85.85,0,1,0,0,1.7"></path><path class="vsl" d="M23.25,30.54a.85.85,0,0,0,0,1.7h5.07a.85.85,0,0,0,0-1.7Z"></path><path class="vsl" d="M32.75,28.25a.83.83,0,0,0-.84-.84H21.61a.84.84,0,0,0-.85.84.85.85,0,0,0,.85.85h10.3a.84.84,0,0,0,.84-.85"></path><path class="vsl" d="M30.27,26a.85.85,0,0,0,0-1.7H20A.85.85,0,0,0,20,26Z"></path><path class="vsl" d="M48,43.52H20.82a.85.85,0,0,0,0,1.69H48a.85.85,0,1,0,0-1.69"></path><path class="vsl" d="M50.53,32.9,49,31.22,46.1,24.48a.84.84,0,0,0-.78-.51H42.14a8.08,8.08,0,0,0,.16-1,1.53,1.53,0,0,0-1.17-1.63l-.23,0h-18a.85.85,0,0,0-.84.85.84.84,0,0,0,.84.84H40.59c-.22,1.37-1.5,8.74-2.44,14.08H30.81A3.37,3.37,0,0,0,30,35.28a2.56,2.56,0,0,0-1.84-.84h0a3.13,3.13,0,0,0-2.9,2.63H23.86c.17-.87.58-2.91.58-2.92a.85.85,0,1,0-1.66-.34c0,.1-.53,2.6-.64,3.23a1.43,1.43,0,0,0,1.12,1.71h1.92A3.26,3.26,0,0,0,26,40.3a2.55,2.55,0,0,0,1.85.85h0a3.08,3.08,0,0,0,2.83-2.39H41.63a3.35,3.35,0,0,0,.8,1.54,2.55,2.55,0,0,0,1.84.85h0a3.07,3.07,0,0,0,2.83-2.39h1.75a.83.83,0,0,0,.82-.65l1-4.46a.84.84,0,0,0-.2-.75M27.86,39.63h0a1.06,1.06,0,0,1-.75-.37,2,2,0,0,1-.47-1.46c.06-1,.72-1.84,1.48-1.84a1.07,1.07,0,0,1,.75.36,2,2,0,0,1,.47,1.46c-.05,1-.72,1.85-1.46,1.85m16.45,0h0a1.06,1.06,0,0,1-.75-.37,2,2,0,0,1-.47-1.46c0-1,.73-1.84,1.47-1.84a1.1,1.1,0,0,1,.76.36,2,2,0,0,1,.47,1.46c-.05,1-.72,1.85-1.46,1.85m3.89-2.56h-1a3.34,3.34,0,0,0-.83-1.79,2.58,2.58,0,0,0-1.85-.84h0a3.14,3.14,0,0,0-2.9,2.63H39.88c.41-2.39,1.39-8,2-11.41h2.91L47.51,32a.75.75,0,0,0,.15.24L49,33.71Z"></path><path class="vsl" d="M59.94,5.75H8.64A8.64,8.64,0,0,0,0,14.39V65.68a8.64,8.64,0,0,0,8.64,8.64h51.3a8.63,8.63,0,0,0,8.64-8.64V14.39a8.64,8.64,0,0,0-8.64-8.64M35.59,69.43a1.75,1.75,0,0,1-1.32.6A1.83,1.83,0,0,1,33,69.46c-3.53-3.72-21.23-23-21.23-36.91a22.56,22.56,0,0,1,45.12,0c0,13.85-17.63,33.07-21.26,36.88"></path><polygon class="vsl" points="97.22 38.45 107.69 10.94 99.67 10.94 93.69 28.1 87.68 10.94 79.7 10.94 90.18 38.45 97.22 38.45"></polygon><path class="vsl" d="M245.65,34.88a14,14,0,0,0,4.48,3A14.08,14.08,0,0,0,262,37.39a14.5,14.5,0,0,0,2.75-1.87A14.34,14.34,0,0,0,267,33l-5.13-5.17a7.22,7.22,0,0,1-1.07,1.69,6.52,6.52,0,0,1-1.49,1.28,7.44,7.44,0,0,1-1.77.81,7,7,0,0,1-2,.28,7.63,7.63,0,0,1-.82,0,4,4,0,0,1-.82-.16l13.15-15.85a14.3,14.3,0,0,0-5-4.39,13.73,13.73,0,0,0-3.13-1.18,13.93,13.93,0,0,0-3.36-.41,14.18,14.18,0,0,0-5.45,1,13.43,13.43,0,0,0-7.49,7.56,15.45,15.45,0,0,0-1.1,5.95,15,15,0,0,0,1.1,5.84,14.18,14.18,0,0,0,3,4.59m3.54-13.52A7,7,0,0,1,250.66,19a6.41,6.41,0,0,1,2.22-1.5,6.77,6.77,0,0,1,2.7-.52c.34,0,.67,0,1,0a4,4,0,0,1,1,.24L249.37,28.1a3.9,3.9,0,0,1-.34-.83,9,9,0,0,1-.21-1,6.71,6.71,0,0,1-.13-1c0-.32,0-.61,0-.87a8.34,8.34,0,0,1,.54-3.09"></path><path class="vsl" d="M289.08,37.77a8.72,8.72,0,0,0,4.65-4.65,8.28,8.28,0,0,0,.7-3.4,7.78,7.78,0,0,0-.7-3.32,7.69,7.69,0,0,0-1.86-2.59,8.74,8.74,0,0,0-2.79-1.68,9.43,9.43,0,0,0-3.38-.61h-7.29a1.67,1.67,0,0,1-1.24-.52,1.77,1.77,0,0,1-.51-1.28A1.76,1.76,0,0,1,278.41,18H292.6V11H278.41a8.65,8.65,0,0,0-6.19,2.55,8.78,8.78,0,0,0-1.86,9.6,8.7,8.7,0,0,0,1.86,2.78,8.68,8.68,0,0,0,6.19,2.59h7.29a3,3,0,0,1,1.24.23,1,1,0,0,1,.5,1,1.72,1.72,0,0,1-1.74,1.74h-16v7h16a8.5,8.5,0,0,0,3.38-.67"></path><polygon class="vsl" points="237.66 0 230.6 9.49 230.6 38.45 237.66 38.45 237.66 0"></polygon><rect class="vsl" x="85.17" y="48.62" width="209.17" height="2.26"></rect><path class="vsl" d="M112.22,35.14A12.82,12.82,0,0,0,116.69,38a15,15,0,0,0,5.45,1,10.67,10.67,0,0,0,2.64-.33,14.76,14.76,0,0,0,2.53-.92,16,16,0,0,0,2.34-1.35,22.13,22.13,0,0,0,2.12-1.69l2.73,3.77h1.69V11H134.5l-2.73,3.26a18.38,18.38,0,0,0-2.09-1.72,14.66,14.66,0,0,0-2.35-1.39,13.53,13.53,0,0,0-2.54-.92,10.3,10.3,0,0,0-2.65-.34A13.87,13.87,0,0,0,116.69,11a13.66,13.66,0,0,0-4.47,3,14,14,0,0,0-3,4.6,15.31,15.31,0,0,0-1.11,5.9,16.08,16.08,0,0,0,1.11,6.14,13.2,13.2,0,0,0,3,4.55m3.53-13.89a6.74,6.74,0,0,1,1.48-2.34,6.09,6.09,0,0,1,2.2-1.44,7.48,7.48,0,0,1,2.71-.48,5.87,5.87,0,0,1,2.71.63,7.15,7.15,0,0,1,2.22,1.65,8,8,0,0,1,1.51,2.39,7.29,7.29,0,0,1,.54,2.79,7.21,7.21,0,0,1-.54,2.78,7.89,7.89,0,0,1-1.51,2.39,7.06,7.06,0,0,1-2.22,1.67,6,6,0,0,1-2.71.63,7.48,7.48,0,0,1-2.71-.49,6.2,6.2,0,0,1-2.2-1.43,6.78,6.78,0,0,1-1.48-2.35,8.83,8.83,0,0,1-.54-3.2,8.91,8.91,0,0,1,.54-3.2"></path><path class="vsl" d="M148.54,22.73a5,5,0,0,1,.41-2A5.23,5.23,0,0,1,150.08,19a5.17,5.17,0,0,1,1.69-1.13,5.4,5.4,0,0,1,2.08-.41,5.2,5.2,0,0,1,2,.41,5.32,5.32,0,0,1,2.79,2.81,5,5,0,0,1,.41,2V38.44h7V22.73a12.18,12.18,0,0,0-1-4.78A12.71,12.71,0,0,0,162.5,14a12.23,12.23,0,0,0-3.89-2.64,12,12,0,0,0-4.76-1,12.41,12.41,0,0,0-8.31,3.21l-2.31-2.67h-1.7v27.5h7Z"></path><path class="vsl" d="M189.56,37.77a8.54,8.54,0,0,0,2.78-1.88,9.3,9.3,0,0,0,1.88-2.77,8.61,8.61,0,0,0,.69-3.4,7.85,7.85,0,0,0-2.57-5.91,8.37,8.37,0,0,0-2.78-1.68,9.47,9.47,0,0,0-3.38-.61h-7.29a1.63,1.63,0,0,1-1.23-.52,1.78,1.78,0,0,1-.52-1.28,1.66,1.66,0,0,1,.52-1.22,1.63,1.63,0,0,1,1.23-.52h14.2V11h-14.2a8.58,8.58,0,0,0-3.41.68,8.69,8.69,0,0,0-4.64,4.64,8.92,8.92,0,0,0,0,6.83,8.87,8.87,0,0,0,1.86,2.78,8.51,8.51,0,0,0,2.78,1.89,8.42,8.42,0,0,0,3.41.7h7.29a2.87,2.87,0,0,1,1.23.23.93.93,0,0,1,.51,1,1.65,1.65,0,0,1-.51,1.23,1.68,1.68,0,0,1-1.23.51h-16v7h16a8.53,8.53,0,0,0,3.38-.67"></path><path class="vsl" d="M201.29,35.14A12.91,12.91,0,0,0,205.76,38a15,15,0,0,0,5.46,1,10.57,10.57,0,0,0,2.62-.33,14.46,14.46,0,0,0,2.53-.92,15.57,15.57,0,0,0,2.35-1.35,22.13,22.13,0,0,0,2.12-1.69l2.73,3.77h1.69V11h-1.69l-2.73,3.26a17.55,17.55,0,0,0-2.09-1.72,15.11,15.11,0,0,0-2.35-1.39,13.79,13.79,0,0,0-2.54-.92,10.34,10.34,0,0,0-2.64-.34A13.9,13.9,0,0,0,201.29,14a14,14,0,0,0-3,4.6,15.12,15.12,0,0,0-1.11,5.9,15.89,15.89,0,0,0,1.11,6.14,13.2,13.2,0,0,0,3,4.55m3.53-13.89a6.86,6.86,0,0,1,1.47-2.34,6.13,6.13,0,0,1,2.21-1.44,7.42,7.42,0,0,1,2.72-.48,5.86,5.86,0,0,1,2.7.63,7.52,7.52,0,0,1,2.22,1.65,8.22,8.22,0,0,1,1.51,2.39,7.29,7.29,0,0,1,.54,2.79,7.21,7.21,0,0,1-.54,2.78,8.09,8.09,0,0,1-1.51,2.39,7.42,7.42,0,0,1-2.22,1.67,6,6,0,0,1-2.7.63,7.42,7.42,0,0,1-2.72-.49A6.24,6.24,0,0,1,206.29,30a6.91,6.91,0,0,1-1.47-2.35,8.83,8.83,0,0,1-.55-3.2,8.91,8.91,0,0,1,.55-3.2"></path><path class="vsl" d="M85.22,68.81a5.16,5.16,0,0,0,2.63.75c1.51,0,2.38-.8,2.38-2s-.6-1.67-2.14-2.26c-1.86-.66-3-1.62-3-3.23,0-1.77,1.47-3.09,3.68-3.09a5.15,5.15,0,0,1,2.52.56l-.4,1.2a4.64,4.64,0,0,0-2.17-.54c-1.55,0-2.14.93-2.14,1.7,0,1.07.69,1.59,2.26,2.2,1.93.74,2.91,1.67,2.91,3.35s-1.3,3.27-4,3.27a5.89,5.89,0,0,1-2.9-.72Z"></path><path class="vsl" d="M95.59,67,94.41,70.6H92.89l3.87-11.38h1.77l3.89,11.38h-1.57L99.63,67Zm3.74-1.15L98.21,62.6c-.25-.75-.42-1.42-.59-2.08h0c-.17.67-.36,1.37-.58,2.06L95.9,65.87Z"></path><path class="vsl" d="M104.09,59.22h1.47V69.37h4.87V70.6h-6.34Z"></path><path class="vsl" d="M118,65.27h-4.42v4.1h4.93V70.6h-6.4V59.22h6.15v1.23h-4.68v3.6H118Z"></path><path class="vsl" d="M120.18,68.81a5.16,5.16,0,0,0,2.63.75c1.51,0,2.39-.8,2.39-2s-.61-1.67-2.15-2.26c-1.86-.66-3-1.62-3-3.23,0-1.77,1.47-3.09,3.69-3.09a5.1,5.1,0,0,1,2.51.56l-.4,1.2a4.55,4.55,0,0,0-2.16-.54c-1.56,0-2.15.93-2.15,1.7,0,1.07.69,1.59,2.26,2.2,1.93.74,2.91,1.67,2.91,3.35s-1.3,3.27-4,3.27a5.89,5.89,0,0,1-2.9-.72Z"></path><path class="vsl" d="M139.42,70.6c-.32-.32-.62-.64-1.06-1.11a4.68,4.68,0,0,1-3.33,1.3,3.23,3.23,0,0,1-3.5-3.19,3.74,3.74,0,0,1,2.23-3.33v0a3.9,3.9,0,0,1-.94-2.38A2.76,2.76,0,0,1,135.71,59a2.37,2.37,0,0,1,2.51,2.42c0,1.2-.69,2.14-2.5,3v.05l2.77,3.18a8.33,8.33,0,0,0,1.1-3.33h1.35a8.61,8.61,0,0,1-1.63,4.2c.6.65,1.19,1.29,1.87,2Zm-1.79-2c-.67-.74-1.94-2.12-3.21-3.58A2.81,2.81,0,0,0,133,67.38a2.24,2.24,0,0,0,2.33,2.29A3.15,3.15,0,0,0,137.63,68.64Zm-3.46-6.94a3.21,3.21,0,0,0,.86,2c1.15-.66,1.89-1.27,1.89-2.23a1.34,1.34,0,0,0-1.31-1.47A1.48,1.48,0,0,0,134.17,61.7Z"></path><path class="vsl" d="M146.1,59.37a20.42,20.42,0,0,1,3.12-.24,6.53,6.53,0,0,1,4.62,1.42,5.26,5.26,0,0,1,1.6,4.09,6,6,0,0,1-1.64,4.43,7,7,0,0,1-5,1.64,24.63,24.63,0,0,1-2.67-.14Zm1.47,10.07a9.06,9.06,0,0,0,1.49.08c3.14,0,4.85-1.75,4.85-4.83,0-2.69-1.51-4.39-4.62-4.39a8.69,8.69,0,0,0-1.72.15Z"></path><path class="vsl" d="M158.82,59.22V70.6h-1.47V59.22Z"></path><path class="vsl" d="M161.19,68.81a5.16,5.16,0,0,0,2.63.75c1.51,0,2.39-.8,2.39-2s-.61-1.67-2.15-2.26c-1.86-.66-3-1.62-3-3.23,0-1.77,1.47-3.09,3.69-3.09a5.1,5.1,0,0,1,2.51.56l-.4,1.2a4.55,4.55,0,0,0-2.16-.54c-1.56,0-2.15.93-2.15,1.7,0,1.07.69,1.59,2.26,2.2,1.93.74,2.91,1.67,2.91,3.35s-1.3,3.27-4,3.27a5.89,5.89,0,0,1-2.9-.72Z"></path><path class="vsl" d="M171.88,60.47h-3.46V59.22h8.43v1.25h-3.48V70.6h-1.49Z"></path><path class="vsl" d="M178.12,59.37a15.45,15.45,0,0,1,2.82-.24,4.68,4.68,0,0,1,3.3.93,2.86,2.86,0,0,1,.89,2.16A3,3,0,0,1,183,65.13v.05a2.85,2.85,0,0,1,1.67,2.3,17.46,17.46,0,0,0,.88,3.12H184a14.29,14.29,0,0,1-.76-2.72c-.34-1.57-.95-2.16-2.28-2.21h-1.39V70.6h-1.47Zm1.47,5.19h1.5c1.57,0,2.57-.87,2.57-2.17,0-1.47-1.06-2.11-2.62-2.13a5.84,5.84,0,0,0-1.45.14Z"></path><path class="vsl" d="M188.68,59.22V70.6h-1.47V59.22Z"></path><path class="vsl" d="M191.25,59.37a13.85,13.85,0,0,1,2.69-.24,4.71,4.71,0,0,1,3.12.83,2.4,2.4,0,0,1,.95,2,2.71,2.71,0,0,1-1.93,2.5v0a2.93,2.93,0,0,1,2.35,2.85,3.09,3.09,0,0,1-1,2.28,5.72,5.72,0,0,1-3.94,1.07,16.63,16.63,0,0,1-2.28-.14ZM192.72,64h1.33c1.56,0,2.47-.81,2.47-1.91,0-1.33-1-1.86-2.5-1.86a6.14,6.14,0,0,0-1.3.11Zm0,5.46a7.89,7.89,0,0,0,1.23.07c1.52,0,2.93-.56,2.93-2.22s-1.34-2.19-2.94-2.19h-1.22Z"></path><path class="vsl" d="M201.88,59.22V66c0,2.55,1.13,3.63,2.65,3.63,1.69,0,2.77-1.11,2.77-3.63V59.22h1.49v6.64c0,3.49-1.84,4.93-4.31,4.93s-4.09-1.34-4.09-4.87v-6.7Z"></path><path class="vsl" d="M213.5,60.47H210V59.22h8.43v1.25H215V70.6H213.5Z"></path><path class="vsl" d="M221.21,59.22V70.6h-1.47V59.22Z"></path><path class="vsl" d="M233.51,64.79c0,3.92-2.38,6-5.29,6S223.1,68.46,223.1,65c0-3.61,2.25-6,5.29-6S233.51,61.41,233.51,64.79Zm-8.84.19c0,2.43,1.32,4.61,3.64,4.61S232,67.45,232,64.86c0-2.26-1.18-4.63-3.63-4.63S224.67,62.48,224.67,65Z"></path><path class="vsl" d="M235.42,70.6V59.22H237L240.67,65a30.76,30.76,0,0,1,2.05,3.7l0,0c-.13-1.52-.17-2.9-.17-4.68V59.22H244V70.6h-1.49l-3.61-5.77A34.14,34.14,0,0,1,236.74,61l-.05,0c.08,1.44.12,2.81.12,4.7V70.6Z"></path><path class="vsl" d="M251.59,60.47h-3.46V59.22h8.43v1.25h-3.48V70.6h-1.49Z"></path><path class="vsl" d="M267.1,64.79c0,3.92-2.38,6-5.29,6S256.7,68.46,256.7,65c0-3.61,2.24-6,5.28-6S267.1,61.41,267.1,64.79Zm-8.83.19c0,2.43,1.31,4.61,3.63,4.61s3.65-2.14,3.65-4.73c0-2.26-1.18-4.63-3.64-4.63S258.27,62.48,258.27,65Z"></path><path class="vsl" d="M278.75,64.79c0,3.92-2.39,6-5.29,6s-5.12-2.33-5.12-5.78c0-3.61,2.24-6,5.29-6S278.75,61.41,278.75,64.79Zm-8.84.19c0,2.43,1.32,4.61,3.63,4.61s3.65-2.14,3.65-4.73c0-2.26-1.18-4.63-3.63-4.63S269.91,62.48,269.91,65Z"></path><path class="vsl" d="M280.66,59.22h1.47V69.37H287V70.6h-6.33Z"></path><path class="vsl" d="M288.43,68.81a5.16,5.16,0,0,0,2.63.75c1.51,0,2.39-.8,2.39-2s-.61-1.67-2.15-2.26c-1.86-.66-3-1.62-3-3.23,0-1.77,1.47-3.09,3.69-3.09a5.1,5.1,0,0,1,2.51.56l-.4,1.2a4.55,4.55,0,0,0-2.16-.54c-1.56,0-2.15.93-2.15,1.7,0,1.07.69,1.59,2.26,2.2,1.93.74,2.91,1.67,2.91,3.35s-1.3,3.27-4,3.27a5.89,5.89,0,0,1-2.9-.72Z"></path></g></g></svg>
